<?xml version="1.0" standalone="no"?>
<!DOCTYPE svg PUBLIC "-//W3C//DTD SVG 20010904//EN"
 "http://www.w3.org/TR/2001/REC-SVG-20010904/DTD/svg10.dtd">
<svg version="1.0" xmlns="http://www.w3.org/2000/svg"
 width="172.000000pt" height="202.000000pt" viewBox="0 0 172.000000 202.000000"
 preserveAspectRatio="xMidYMid meet">

<g transform="translate(0.000000,202.000000) scale(0.100000,-0.100000)"
fill="#000000" stroke="none">
<path d="M797 1745 c-81 -28 -122 -90 -115 -172 5 -61 27 -96 81 -132 43 -28
47 -57 21 -134 -14 -41 -20 -47 -51 -53 -22 -4 -44 -2 -56 5 -10 7 -22 10 -25
7 -3 -3 0 -6 6 -6 7 0 12 -4 12 -8 0 -12 -60 -28 -92 -24 -22 3 -28 9 -28 28
0 24 14 32 25 14 4 -6 11 -7 17 -4 13 8 -10 24 -34 24 -12 0 -18 -10 -20 -32
-2 -26 -11 -36 -48 -55 -59 -32 -66 -39 -50 -58 11 -13 8 -15 -16 -16 l-29 -1
30 -8 30 -8 -28 -1 c-17 -1 -26 -5 -22 -11 4 -6 15 -8 26 -5 15 5 19 1 19 -14
0 -14 6 -21 19 -21 12 0 23 -11 30 -30 12 -36 11 -36 -67 -43 -29 -2 -60 -11
-70 -21 -20 -17 -37 -22 -27 -7 3 5 0 13 -6 17 -7 4 -9 3 -6 -3 4 -6 -5 -16
-21 -22 -29 -11 -72 -45 -72 -56 0 -4 14 -24 30 -45 32 -41 62 -54 145 -65 80
-10 229 -64 268 -96 19 -16 38 -41 41 -55 9 -33 73 -114 91 -114 29 0 107 43
116 64 12 26 95 78 154 96 22 7 61 32 87 55 42 37 139 85 173 85 7 0 32 16 55
35 22 19 68 46 101 61 32 15 59 31 59 35 0 5 16 27 37 49 23 26 33 44 26 51
-5 5 -40 17 -79 27 -68 18 -69 19 -75 55 -7 42 -7 42 -35 51 -14 4 -28 1 -39
-11 -25 -24 -68 -23 -77 2 -4 12 -6 3 -6 -25 0 -25 2 -38 5 -30 6 16 23 30 36
30 15 0 28 -52 16 -66 -14 -17 -59 -18 -59 -1 0 8 -15 11 -51 8 l-52 -3 8 58
c4 33 9 62 12 67 6 11 73 9 73 -3 0 -5 5 -10 11 -10 8 0 8 5 -1 15 -7 8 -25
15 -41 15 -25 0 -28 4 -31 37 -3 43 -25 54 -52 28 -15 -15 -16 -12 -17 37 -1
106 -8 118 -63 118 -25 0 -48 -4 -51 -10 -3 -5 -10 -10 -16 -10 -15 0 -10 44
11 85 72 142 -82 288 -243 230z m149 -14 c45 -21 89 -70 99 -114 9 -33 -12
-114 -30 -121 -10 -3 -12 2 -8 17 3 12 8 43 10 69 4 40 2 48 -18 58 -40 22
-50 -8 -45 -130 4 -101 37 -247 54 -236 4 2 8 -7 8 -20 2 -31 -19 -31 -40 0
-8 14 -24 27 -35 31 -16 5 -21 17 -24 58 l-3 52 -2 -57 c-2 -46 1 -58 13 -58
8 0 15 -5 15 -11 0 -5 4 -8 9 -4 6 3 15 -4 21 -15 6 -12 7 -20 1 -20 -5 0 -12
6 -14 13 -3 7 -6 5 -6 -5 -1 -14 -10 -18 -41 -18 -22 0 -40 5 -40 11 0 5 -4 8
-9 4 -5 -3 -12 -1 -15 4 -3 4 -19 7 -36 5 -33 -4 -35 1 -19 43 6 15 17 59 24
96 12 65 12 67 -6 62 -27 -9 -74 22 -98 65 -46 81 -14 176 72 216 62 29 108
30 163 5z m194 -321 c4 -14 10 -62 14 -107 5 -69 4 -83 -8 -83 -8 0 -17 6 -19
13 -3 7 -6 6 -6 -5 -1 -20 -37 -27 -68 -13 -21 10 -22 14 -17 104 2 52 10 101
16 108 7 8 26 13 46 11 28 -2 37 -8 42 -28z m300 -249 c0 -5 3 -23 6 -40 6
-30 6 -31 -30 -31 -38 0 -43 9 -30 58 4 15 14 22 30 22 13 0 24 -4 24 -9z
m-948 -48 c17 -15 26 -53 12 -53 -20 0 -44 24 -44 45 0 29 7 31 32 8z m353
-53 c24 0 47 -5 50 -10 3 -6 17 -7 31 -4 20 5 24 3 24 -16 0 -18 -4 -21 -22
-17 -13 3 -51 11 -85 18 -46 10 -63 17 -63 29 0 23 14 35 18 16 3 -12 15 -16
47 -16z"/>
<path d="M812 1535 c-2 -47 1 -75 8 -75 5 0 10 20 10 45 0 34 4 45 16 45 25 0
14 54 -11 58 -19 3 -21 -3 -23 -73z"/>
<path d="M888 1493 c7 -3 16 -2 19 1 4 3 -2 6 -13 5 -11 0 -14 -3 -6 -6z"/>
<path d="M870 1455 c0 -14 4 -25 9 -25 4 0 6 11 3 25 -2 14 -6 25 -8 25 -2 0
-4 -11 -4 -25z"/>
<path d="M867 1263 c3 -7 6 -13 8 -13 2 0 5 6 8 13 3 8 -1 14 -8 14 -7 0 -11
-6 -8 -14z"/>
<path d="M1115 1350 c3 -5 8 -10 11 -10 2 0 4 5 4 10 0 6 -5 10 -11 10 -5 0
-7 -4 -4 -10z"/>
<path d="M1131 1314 c0 -11 3 -14 6 -6 3 7 2 16 -1 19 -3 4 -6 -2 -5 -13z"/>
<path d="M1041 1294 c0 -11 3 -14 6 -6 3 7 2 16 -1 19 -3 4 -6 -2 -5 -13z"/>
<path d="M366 1071 c-54 -7 -64 -17 -43 -45 12 -16 14 -16 14 -2 0 9 -4 16 -9
16 -5 0 -6 5 -3 10 3 6 26 10 51 10 24 0 44 5 44 10 0 6 -1 9 -2 8 -2 0 -25
-4 -52 -7z"/>
<path d="M412 658 c-148 -54 -147 -51 -147 -228 0 -160 3 -168 96 -230 l60
-41 42 34 c23 19 68 51 100 71 31 20 57 41 57 46 0 13 -3 13 -36 -5 -49 -25
-90 -19 -132 19 l-37 34 -2 139 -2 138 37 -77 37 -77 60 31 c33 17 61 32 63
33 5 4 -72 155 -78 154 -3 0 -56 -19 -118 -41z"/>
<path d="M1160 555 c-10 -12 -16 -13 -28 -3 -14 11 -15 10 -7 -7 15 -35 19
-185 5 -185 -7 0 -1 -9 14 -21 25 -20 28 -20 53 -4 21 14 23 19 11 26 -11 6
-14 28 -14 94 1 74 4 89 20 101 19 13 18 14 -11 14 -17 0 -36 -7 -43 -15z"/>
<path d="M1467 543 c-4 -12 -17 -33 -29 -48 -30 -38 -29 -140 1 -161 19 -13
24 -13 52 8 28 21 29 23 10 26 -18 3 -21 10 -21 47 0 35 4 44 21 48 22 6 18
27 -6 27 -9 0 -15 14 -17 38 -3 31 -4 34 -11 15z"/>
<path d="M574 487 c-21 -11 -42 -25 -46 -31 -11 -16 -10 -95 2 -117 13 -24 28
-24 53 -2 18 17 19 17 28 0 13 -23 32 -22 54 3 10 11 13 20 7 20 -14 0 -17 97
-3 102 4 2 -6 12 -24 24 l-32 21 -39 -20z m26 -77 c0 -27 -4 -50 -10 -50 -5 0
-10 23 -10 50 0 28 5 50 10 50 6 0 10 -22 10 -50z"/>
<path d="M720 489 c-17 -14 -21 -22 -12 -26 15 -6 16 -100 1 -105 -7 -2 0 -12
15 -21 36 -24 54 -6 58 62 2 28 8 52 13 54 12 3 15 -62 4 -84 -6 -11 -2 -22
12 -35 18 -16 21 -17 36 -1 12 12 16 31 14 67 -2 40 1 50 13 50 13 0 16 -12
16 -60 0 -70 15 -84 56 -51 19 15 22 21 10 21 -13 0 -16 10 -16 49 0 28 5 53
10 56 6 4 1 14 -12 25 -22 17 -24 17 -47 0 -24 -17 -25 -17 -42 4 -16 20 -18
20 -36 3 -24 -21 -32 -21 -52 -3 -14 13 -19 12 -41 -5z"/>
<path d="M1039 496 c-49 -21 -59 -36 -59 -87 0 -47 12 -68 48 -88 13 -7 26 -1
52 21 28 24 31 29 12 23 -22 -6 -52 8 -52 25 0 5 16 18 35 30 34 21 34 22 20
50 -19 37 -25 40 -56 26z m11 -62 c0 -8 -4 -14 -10 -14 -5 0 -10 9 -10 21 0
11 5 17 10 14 6 -3 10 -13 10 -21z"/>
<path d="M1320 494 c-14 -7 -35 -14 -47 -14 -21 0 -23 -5 -23 -49 0 -27 -2
-55 -5 -63 -3 -8 9 -20 30 -30 33 -16 36 -16 67 0 18 9 36 22 40 27 12 16 9
88 -5 114 -15 30 -25 33 -57 15z m10 -80 c0 -24 -4 -44 -10 -44 -5 0 -10 23
-10 51 0 31 4 48 10 44 6 -3 10 -26 10 -51z"/>
<path d="M1259 279 c-2 -31 3 -74 10 -82 4 -4 6 13 5 39 -3 44 -13 73 -15 43z"/>
<path d="M732 258 c-16 -16 -15 -43 2 -57 15 -12 46 -5 46 11 0 7 -5 6 -14 -1
-17 -14 -39 9 -30 33 7 18 30 22 37 6 3 -6 4 -5 3 2 -4 18 -29 21 -44 6z"/>
<path d="M802 258 c-26 -26 -2 -75 31 -62 22 8 31 42 17 59 -15 18 -32 19 -48
3z m36 -25 c-3 -30 -23 -41 -31 -18 -9 21 2 45 20 45 10 0 13 -9 11 -27z"/>
<path d="M871 231 c1 -35 2 -35 8 -7 11 51 37 45 32 -6 -1 -10 3 -18 8 -18 6
0 11 14 11 31 0 39 22 34 32 -7 6 -27 6 -27 5 6 -2 35 -2 35 -49 36 l-48 1 1
-36z"/>
<path d="M993 235 c0 -22 2 -30 4 -17 2 12 2 30 0 40 -3 9 -5 -1 -4 -23z"/>
<path d="M1022 258 c-16 -16 -15 -43 2 -57 15 -12 46 -5 46 11 0 7 -5 6 -14
-1 -20 -17 -43 13 -26 34 10 12 15 13 28 3 13 -11 14 -10 10 2 -6 20 -30 24
-46 8z"/>
<path d="M1086 255 c-3 -9 4 -20 21 -28 17 -10 22 -16 14 -21 -7 -4 -18 -2
-26 4 -9 7 -15 8 -15 2 0 -13 26 -23 45 -16 24 9 18 33 -10 40 -14 3 -22 10
-19 15 3 6 15 7 26 3 14 -4 18 -2 14 5 -10 16 -43 13 -50 -4z"/>
<path d="M1197 263 c-14 -13 -6 -31 15 -36 19 -5 20 -8 7 -23 -12 -15 -12 -17
1 -12 23 7 24 35 1 43 -12 3 -21 11 -21 16 0 6 9 7 21 4 15 -5 19 -4 15 4 -8
12 -29 15 -39 4z"/>
<path d="M1302 258 c-14 -14 -16 -44 -3 -53 6 -3 9 7 8 21 -1 15 4 29 10 31
18 7 28 -26 15 -48 -9 -15 -9 -17 2 -13 20 8 25 25 15 52 -9 24 -28 29 -47 10z"/>
<path d="M1371 231 c1 -28 3 -30 6 -11 3 14 9 30 14 36 5 7 3 11 -6 11 -11 0
-15 -11 -14 -36z"/>
<path d="M1423 263 c-17 -6 -16 -48 1 -62 15 -12 46 -5 46 11 0 6 -6 5 -15 -2
-8 -6 -19 -9 -25 -5 -19 11 -10 25 16 25 19 0 25 5 22 17 -3 18 -24 26 -45 16z
m32 -13 c3 -5 -3 -10 -15 -10 -12 0 -18 5 -15 10 3 6 10 10 15 10 5 0 12 -4
15 -10z"/>
</g>
</svg>
